<svg width="30" height="25" viewBox="0 0 30 25" fill="none" xmlns="http://www.w3.org/2000/svg">
<path d="M28.5999 24.9899C28.5365 24.1599 28.4627 23.4674 28.3923 23.0358C28.1672 21.6747 28.3536 18.5017 28.3782 18.1317C28.6737 12.9668 27.2912 10.0405 24.1463 9.19638L24.1076 9.18689C24.0583 9.17266 24.0161 9.15843 23.9774 9.15369L23.9422 9.14421C21.2968 8.3901 19.355 7.05264 18.3312 5.26929C17.8528 4.43456 17.5749 3.28682 17.5116 1.85446C17.4658 0.834736 17.5467 0.0379859 17.5467 0L18.9398 0.260854C18.8694 0.962796 18.8237 3.03071 19.4428 4.10732C20.2449 5.50647 21.9405 6.63521 24.2166 7.28504C24.2834 7.29927 24.3467 7.31824 24.3995 7.33247L24.4241 7.34196C26.1233 7.80201 27.446 8.79323 28.3536 10.3015C29.4934 12.1938 29.9753 14.8783 29.7783 18.2884V18.2932C29.7009 19.5358 29.6305 21.8123 29.7642 22.6281C29.8486 23.1356 29.9296 23.8849 29.9999 24.8003L28.5999 24.9899Z" fill="#7465B4"/>
<path d="M21.9968 25.0001C21.7998 22.7377 21.9863 21.2009 21.9933 21.1393L23.3793 21.4523C23.3793 21.4618 23.221 22.8088 23.3899 24.7819L21.9968 25.0001Z" fill="#7465B4"/>
<path d="M1.40013 24.9901L0 24.7909C0.0703604 23.8755 0.15127 23.1262 0.235699 22.6186C0.369376 21.8029 0.29902 19.5263 0.221627 18.2837V18.279C0.024627 14.8736 0.503056 12.1845 1.64633 10.292C2.55392 8.78376 3.8802 7.7878 5.5828 7.33248L5.72351 7.29454C8.03123 6.64477 9.74791 5.51128 10.5571 4.10259C11.1762 3.0212 11.1305 0.958072 11.0601 0.25611L12.4532 0C12.4567 0.0331996 12.5376 0.834738 12.4884 1.85446C12.4215 3.28683 12.1471 4.43934 11.6652 5.26931C11.148 6.17048 10.3847 6.96723 9.39618 7.63597C8.44286 8.281 7.3066 8.79325 6.00849 9.15845L5.78335 9.22011C2.68409 10.0881 1.32268 13.0049 1.6182 18.1364C1.63931 18.5064 1.82927 21.6794 1.60413 23.0358C1.53729 23.4626 1.46341 24.155 1.40009 24.9898L1.40013 24.9901Z" fill="#7465B4"/>
<path d="M8.00355 24.9999L6.60693 24.7817C6.77931 22.8087 6.61749 21.4664 6.61397 21.4522L8.00004 21.1344C8.00707 21.2008 8.19704 22.7375 8.00355 24.9998L8.00355 24.9999Z" fill="#7465B4"/>
<path d="M9.65939 9.53848C8.71308 8.96933 6.54257 9.11162 5.78622 9.21122L5.64551 7.32352C5.96212 7.28084 8.77641 6.92986 10.2293 7.80255L9.65939 9.53848Z" fill="#7465B4"/>
<path d="M14.2964 16.3717H15.7035V24.8898H14.2964V16.3717Z" fill="#7465B4"/>
<path d="M14.2964 12.5546H15.7035V14.5039H14.2964V12.5546Z" fill="#7465B4"/>
<path d="M20.3439 9.53768L19.7705 7.80655C21.2269 6.93392 24.0412 7.28485 24.3543 7.32753L24.2136 9.2152C23.4608 9.11086 21.2903 8.96857 20.3439 9.53771L20.3439 9.53768ZM24.2171 9.21043L24.2874 8.2666L24.2171 9.21043Z" fill="#7465B4"/>
</svg>
