<svg width="22" height="24" viewBox="0 0 22 24" fill="none" xmlns="http://www.w3.org/2000/svg">
<path d="M11.0004 0C10.4207 0 9.95204 0.468706 9.95204 1.04833V15.8454L4.6727 10.5661C4.26272 10.1561 3.60029 10.1561 3.1903 10.5661C2.78031 10.976 2.78032 11.6385 3.1903 12.0485L10.2591 19.1172C10.4636 19.3217 10.7317 19.4245 11.0001 19.4245C11.2685 19.4245 11.5369 19.3217 11.7412 19.1172L18.81 12.0485C19.2199 11.6385 19.2199 10.976 18.81 10.5661C18.4 10.1561 17.7376 10.1561 17.3276 10.5661L12.0482 15.8454V1.04833C12.0482 0.468706 11.5795 0 10.9999 0H11.0004Z" fill="#7465B4"/>
<path d="M1.04833 13.6898C0.468706 13.6898 0 14.1585 0 14.7382V22.0148C0 22.5944 0.468706 23.0631 1.04833 23.0631H20.9517C21.5313 23.0631 22 22.5944 22 22.0148V14.7382C22 14.1585 21.5313 13.6898 20.9517 13.6898C20.372 13.6898 19.9033 14.1585 19.9033 14.7382L19.9036 20.9664H2.0963V14.7382C2.0963 14.1585 1.62783 13.6898 1.04797 13.6898H1.04833Z" fill="#7465B4"/>
</svg>
