<svg width="30" height="35" viewBox="0 0 30 35" fill="none" xmlns="http://www.w3.org/2000/svg">
<path d="M20.5775 0.000685197C16.7605 -0.0196837 13.3906 2.65664 12.616 6.45425C11.7898 10.5052 14.1825 14.5317 18.1421 15.7557C22.1016 16.9797 26.3615 15.0106 27.9807 11.2052C28.0437 11.0589 28.0461 10.8935 27.9871 10.7453C27.9282 10.5974 27.8129 10.4789 27.6666 10.4159C27.5195 10.3532 27.3538 10.3516 27.2056 10.4114C27.0574 10.4714 26.9395 10.5877 26.8773 10.7348C25.496 13.9809 21.8792 15.6531 18.4973 14.6078C15.1153 13.5623 13.0908 10.1482 13.7954 6.69298C14.5003 3.23814 17.7035 0.883932 21.2272 1.23714C24.26 1.54106 26.6616 3.76362 27.2716 6.62485L26.3853 5.85087C26.2652 5.74527 26.1079 5.69194 25.9482 5.70265C25.7887 5.71338 25.64 5.78761 25.5352 5.90822C25.3176 6.158 25.343 6.53696 25.5926 6.75486L27.6305 8.53604C27.765 8.65396 27.9451 8.70596 28.1217 8.67755C28.2983 8.64914 28.453 8.54354 28.5438 8.38944L29.9182 6.05829C30.0846 5.77313 29.9892 5.40676 29.7046 5.23874C29.5687 5.15834 29.4065 5.13476 29.2532 5.17335C29.0989 5.21221 28.9665 5.3111 28.885 5.44752L28.416 6.24374C27.6516 2.94862 24.8501 0.392356 21.3464 0.0410053C21.0886 0.0150084 20.8316 0.00134063 20.5773 0L20.5775 0.000685197ZM20.7088 3.15728C20.5496 3.15782 20.3971 3.2216 20.2851 3.3347C20.1731 3.4478 20.1104 3.60056 20.1109 3.75976V8.42632L17.2524 9.71975C17.1068 9.78595 16.9935 9.90736 16.9377 10.0574C16.8822 10.2073 16.8887 10.3732 16.9557 10.5184C17.0934 10.8183 17.4475 10.951 17.7482 10.8151L20.9562 9.35659V9.35632C21.1712 9.26038 21.31 9.04758 21.3116 8.81227V3.75978C21.3122 3.59978 21.2489 3.44621 21.1358 3.33311C21.0227 3.21974 20.8689 3.15649 20.7089 3.15729L20.7088 3.15728ZM0.602753 3.964V3.96373C0.442755 3.96319 0.288919 4.02644 0.175816 4.13981C0.0627196 4.2529 -0.000531776 4.40647 3.37971e-06 4.56648V34.2189C-0.000532668 34.3789 0.0627168 34.5325 0.175816 34.6456C0.288912 34.7587 0.442748 34.8222 0.602753 34.8214H21.8574H21.8571C22.1889 34.8201 22.4564 34.5504 22.4553 34.2189V19.4472C22.4558 19.2881 22.3931 19.1353 22.2811 19.0222C22.1688 18.9091 22.0166 18.8453 21.8571 18.8448C21.6979 18.845 21.5451 18.9088 21.4326 19.0217C21.3203 19.1348 21.2576 19.2881 21.2581 19.4472V33.62H1.20073V5.16545H9.61228C9.77148 5.16598 9.92451 5.10327 10.0376 4.99124C10.1507 4.87895 10.2145 4.72645 10.215 4.56725C10.2156 4.40725 10.1523 4.25369 10.0392 4.14058C9.92612 4.02722 9.77228 3.96397 9.61227 3.9645L0.602753 3.964ZM6.29764 10.3273C5.96799 10.3283 5.70105 10.5956 5.69972 10.9252C5.69837 11.2567 5.96611 11.5266 6.29764 11.5279H10.3475C10.5077 11.5285 10.6613 11.4652 10.7744 11.3521C10.8875 11.2388 10.951 11.0852 10.9502 10.9252C10.9497 10.766 10.8859 10.6135 10.7728 10.5015C10.6597 10.3892 10.5069 10.3265 10.3475 10.3273L6.29764 10.3273ZM6.29764 16.1722C5.96745 16.1735 5.70025 16.4413 5.69972 16.7715C5.70106 17.1011 5.96799 17.3681 6.29764 17.3694H14.3016C14.6313 17.3681 14.8982 17.1011 14.8996 16.7715C14.899 16.4413 14.6318 16.1736 14.3016 16.1722H6.29764ZM6.29764 22.0137C6.13844 22.0145 5.98594 22.0783 5.87392 22.1914C5.76162 22.3042 5.69917 22.4573 5.69971 22.6164C5.70105 22.9461 5.96799 23.213 6.29763 23.2144H16.1575C16.3167 23.2152 16.4695 23.1525 16.5826 23.0402C16.6957 22.9281 16.7595 22.7756 16.76 22.6164C16.7608 22.4564 16.6976 22.3029 16.5842 22.1895C16.4711 22.0764 16.3175 22.0132 16.1575 22.0137L6.29764 22.0137ZM6.29764 27.8586V27.8589C5.96799 27.86 5.70105 28.1272 5.69972 28.4568C5.69918 28.616 5.76162 28.7691 5.87392 28.8819C5.98595 28.995 6.13845 29.0588 6.29764 29.0596H16.1575C16.3175 29.0601 16.4711 28.9969 16.5842 28.8838C16.6976 28.7704 16.7608 28.6168 16.76 28.4568C16.7587 28.1253 16.4891 27.8576 16.1576 27.8589L6.29764 27.8586Z" fill="#7465B4"/>
</svg>
