<svg width="25" height="25" viewBox="0 0 25 25" fill="none" xmlns="http://www.w3.org/2000/svg">
<path d="M6.66666 22.1158H2.08341C1.85332 22.1158 1.66675 22.3311 1.66675 22.5966C1.66675 22.8621 1.85332 23.0774 2.08341 23.0774H6.66666C6.89676 23.0774 7.08332 22.8621 7.08332 22.5966C7.08332 22.3311 6.89676 22.1158 6.66666 22.1158Z" fill="white"/>
<path d="M9.99992 22.1158H8.33329C8.10319 22.1158 7.91663 22.3311 7.91663 22.5966C7.91663 22.8621 8.10319 23.0774 8.33329 23.0774H9.99992C10.23 23.0774 10.4166 22.8621 10.4166 22.5966C10.4166 22.3311 10.23 22.1158 9.99992 22.1158Z" fill="white"/>
<path d="M23.3426 1.92308H20.3826C20.2275 0.827419 19.5547 0 18.7497 0C17.9446 0 17.2718 0.827419 17.1167 1.92308H16.216C16.0609 0.827419 15.3881 0 14.5831 0C13.778 0 13.1052 0.827419 12.9501 1.92308H10.3828C10.2277 0.827419 9.55486 0 8.74983 0C7.9448 0 7.272 0.827419 7.11686 1.92308H6.2162C6.06107 0.827419 5.38827 0 4.58323 0C3.7782 0 3.1054 0.827419 2.95026 1.92308H1.24996C0.918489 1.92308 0.600395 2.07504 0.366065 2.34547C0.131736 2.61591 0 2.98295 0 3.36536V23.5577C0 23.9402 0.131693 24.3072 0.366065 24.5776C0.600437 24.848 0.918532 25 1.24996 25H22.0829C22.4144 25 22.7325 24.848 22.9668 24.5776C23.2012 24.3072 23.3329 23.9401 23.3329 23.5577V23.0769H24.5829C24.6969 23.0772 24.8059 23.0233 24.8846 22.9282C24.9634 22.8331 25.0049 22.705 24.9995 22.5736L24.1854 2.84942C24.1751 2.59959 24.0817 2.36393 23.9248 2.19135C23.7678 2.01878 23.5592 1.92285 23.3425 1.92306L23.3426 1.92308ZM18.7497 0.961541C19.1042 0.961541 19.4122 1.3702 19.5302 1.92308H17.9692C18.0871 1.37022 18.3952 0.961541 18.7497 0.961541H18.7497ZM14.5831 0.961541C14.9376 0.961541 15.2456 1.3702 15.3636 1.92308H13.8026C13.9205 1.37022 14.2286 0.961541 14.5831 0.961541H14.5831ZM8.74983 0.961541C9.10436 0.961541 9.41239 1.3702 9.53034 1.92308H7.96937C8.0873 1.37022 8.39532 0.961541 8.74988 0.961541H8.74983ZM4.58323 0.961541C4.93776 0.961541 5.24579 1.3702 5.36374 1.92308H3.80277C3.9207 1.37022 4.22873 0.961541 4.58328 0.961541H4.58323ZM1.24996 2.88462H2.95026C3.1052 3.98028 3.7782 4.8077 4.58323 4.8077C4.81332 4.8077 4.99989 4.59243 4.99989 4.32693C4.99989 4.06144 4.81332 3.84616 4.58323 3.84616C4.2287 3.84616 3.92067 3.43751 3.80272 2.88462H7.11686C7.2718 3.98028 7.9448 4.8077 8.74983 4.8077C8.97992 4.8077 9.16649 4.59243 9.16649 4.32693C9.16649 4.06144 8.97992 3.84616 8.74983 3.84616C8.3953 3.84616 8.08727 3.43751 7.96932 2.88462H12.9502C13.1051 3.98028 13.7781 4.8077 14.5832 4.8077C14.8132 4.8077 14.9998 4.59243 14.9998 4.32693C14.9998 4.06144 14.8132 3.84616 14.5832 3.84616C14.2286 3.84616 13.9206 3.43751 13.8026 2.88462H17.1168C17.2717 3.98028 17.9447 4.8077 18.7498 4.8077C18.9798 4.8077 19.1664 4.59243 19.1664 4.32693C19.1664 4.06144 18.9798 3.84616 18.7498 3.84616C18.3952 3.84616 18.0872 3.43751 17.9692 2.88462H22.4997V5.76924H0.833391V3.36539C0.833391 3.0999 1.01996 2.88462 1.25005 2.88462H1.24996ZM1.24996 24.0385C1.01986 24.0385 0.833296 23.8232 0.833296 23.5577V6.73078H22.4996V18.75C22.4996 19.1325 22.3679 19.4995 22.1335 19.7699C21.8992 20.0403 21.5811 20.1923 21.2496 20.1923H19.583C19.3529 20.1923 19.1663 20.4076 19.1663 20.6731V22.5962C19.1663 22.9786 19.0347 23.3457 18.8003 23.6161C18.5659 23.8865 18.2478 24.0385 17.9164 24.0385L1.24996 24.0385ZM22.2667 20.8347C21.8505 22.2081 20.915 23.2883 19.7251 23.7698C19.9033 23.4126 19.998 23.0083 19.9997 22.5962V21.1539H21.2496C21.607 21.1513 21.9576 21.0414 22.2667 20.8347L22.2667 20.8347ZM22.4996 23.5577C22.4996 23.6852 22.4557 23.8076 22.3776 23.8977C22.2995 23.9879 22.1935 24.0385 22.083 24.0385H21.1163C21.6637 23.6163 22.1337 23.074 22.4996 22.4423V23.5577ZM23.3329 22.1154L23.3525 2.89506L24.1458 22.1154H23.3329Z" fill="white"/>
<path d="M19.1665 15.8651C19.1659 15.3112 18.9998 14.7743 18.6963 14.3453C18.3927 13.9161 17.9701 13.6209 17.4999 13.5093V12.0189C17.4999 11.1602 17.1027 10.3665 16.4582 9.93724C15.8137 9.50777 15.0194 9.50777 14.3749 9.93724C13.7304 10.3665 13.3333 11.1602 13.3333 12.0189V17.7882C13.3325 18.4254 13.1128 19.0365 12.7224 19.4872C12.3318 19.9377 11.8022 20.1912 11.25 20.192H10.8333C10.3532 20.1914 9.88798 19.9997 9.51618 19.6495C9.14416 19.2992 8.88838 18.8115 8.79167 18.269H9.16666C9.27715 18.269 9.38318 18.2183 9.4613 18.1282C9.53942 18.038 9.58332 17.9157 9.58332 17.7882V16.1242C10.4285 15.8162 11.1666 15.2055 11.691 14.3812C12.2154 13.5565 12.4988 12.5609 12.4999 11.5382V10.5766C12.4999 10.4491 12.456 10.3268 12.3779 10.2367C12.2998 10.1465 12.1938 10.0959 12.0833 10.0959H11.6666V8.17279C11.6666 8.0453 11.6227 7.92296 11.5446 7.83281C11.4665 7.74267 11.3605 7.69202 11.25 7.69202H10.4166C10.1866 7.69202 9.99998 7.90729 9.99998 8.17279C9.99998 8.43828 10.1866 8.65356 10.4166 8.65356H10.8333V10.0959H10.4166C10.1866 10.0959 9.99998 10.3111 9.99998 10.5766V11.5382C9.99998 12.2252 9.68228 12.8601 9.16666 13.2037C8.65105 13.5471 8.01564 13.5471 7.50003 13.2037C6.98441 12.8601 6.66671 12.2252 6.66671 11.5382V10.5766C6.66671 10.4491 6.62281 10.3268 6.54468 10.2367C6.46656 10.1465 6.36053 10.0959 6.25005 10.0959H5.83339V8.65356H6.25005C6.48014 8.65356 6.66671 8.43828 6.66671 8.17279C6.66671 7.90729 6.48014 7.69202 6.25005 7.69202H5.41673C5.18664 7.69202 5.00007 7.90729 5.00007 8.17279V10.0959H4.58341C4.35332 10.0959 4.16675 10.3111 4.16675 10.5766V11.5382C4.16786 12.5609 4.45134 13.5565 4.97569 14.3812C5.50006 15.2055 6.23814 15.8162 7.08337 16.1242V17.7882C7.08337 17.9157 7.12726 18.038 7.20539 18.1282C7.28351 18.2183 7.38954 18.269 7.50003 18.269H7.94998C8.05005 19.0693 8.39659 19.8012 8.92596 20.3309C9.45552 20.8606 10.1326 21.1527 10.8333 21.1536H11.25C12.0232 21.1525 12.7647 20.7977 13.3113 20.1667C13.8582 19.5359 14.1656 18.6804 14.1666 17.7882V12.0189C14.1666 11.5036 14.4049 11.0276 14.7916 10.7698C15.1783 10.5123 15.6549 10.5123 16.0416 10.7698C16.4283 11.0276 16.6665 11.5036 16.6665 12.0189V13.5093C16.1489 13.6312 15.6908 13.9755 15.3848 14.4726C15.0788 14.9695 14.948 15.582 15.0187 16.1862C15.0894 16.7904 15.3563 17.3409 15.7655 17.7264C16.1746 18.1121 16.6956 18.304 17.2228 18.2632C17.7499 18.2222 18.2437 17.952 18.6048 17.5068C18.9656 17.0614 19.1663 16.4746 19.1665 15.8651L19.1665 15.8651ZM5.00007 11.5382V11.0574H5.83339V11.5382C5.83339 12.5688 6.30995 13.5212 7.08337 14.0363C7.85678 14.5516 8.80991 14.5516 9.58332 14.0363C10.3567 13.5212 10.8333 12.5688 10.8333 11.5382V11.0574H11.6666V11.5382C11.6666 12.9122 11.0312 14.182 9.99998 14.869C8.96876 15.556 7.69793 15.556 6.66671 14.869C5.63549 14.182 5.00007 12.9122 5.00007 11.5382ZM8.75 16.3459V17.3074H7.91668V16.3459H8.75ZM17.0832 17.3074C16.7517 17.3074 16.4336 17.1555 16.1993 16.885C15.965 16.6146 15.8332 16.2476 15.8332 15.8651C15.8332 15.4827 15.9649 15.1156 16.1993 14.8452C16.4337 14.5749 16.7518 14.4229 17.0832 14.4229C17.4146 14.4229 17.7328 14.5748 17.9671 14.8452C18.2014 15.1157 18.3332 15.4827 18.3332 15.8651C18.3332 16.2476 18.2015 16.6146 17.9671 16.885C17.7327 17.1554 17.4146 17.3074 17.0832 17.3074Z" fill="white"/>
<path d="M17.0917 15.3842H17.0874C16.8566 15.3854 16.6702 15.6022 16.6708 15.8686C16.6713 16.1349 16.8586 16.3504 17.0897 16.3504C17.3205 16.3504 17.5078 16.1349 17.5084 15.8686C17.5089 15.6022 17.3226 15.3854 17.0917 15.3842H17.0917Z" fill="white"/>
</svg>
