<svg width="30" height="30" viewBox="0 0 30 30" fill="none" xmlns="http://www.w3.org/2000/svg">
<path d="M25.1611 26.1288H18.3433C18.4798 25.5107 18.2915 24.866 17.8441 24.4184L12.4388 19.0124C12.3481 18.9217 12.225 18.8707 12.0967 18.8707H0.483867C0.216662 18.8707 0 19.0874 0 19.3546V25.161C0 25.2893 0.0509791 25.4124 0.141704 25.5032C0.232429 25.5939 0.355557 25.6449 0.483867 25.6449H9.02094L14.21 29.8903C14.2964 29.961 14.4046 29.9996 14.5163 29.9996H25.1614C25.8528 29.9996 26.4918 29.6307 26.8376 29.0319C27.1832 28.4331 27.1832 27.6952 26.8376 27.0964C26.4918 26.4977 25.8528 26.1287 25.1614 26.1287L25.1611 26.1288ZM25.1611 29.032H14.6886L9.49954 24.7865C9.41314 24.7159 9.30492 24.6772 9.19324 24.6772H0.967497V19.8385H11.8963L17.1602 25.1025C17.3259 25.2686 17.4188 25.4935 17.4188 25.728C17.4186 25.9626 17.3253 26.1877 17.1594 26.3534C16.9935 26.5193 16.7686 26.6126 16.534 26.6126C16.2992 26.6133 16.0741 26.52 15.9084 26.3538L13.4064 23.8513L12.7223 24.5354L15.2248 27.0379C15.5615 27.3749 16.0152 27.5689 16.4912 27.5799C16.9676 27.5907 17.4296 27.4177 17.7815 27.0965H25.1612C25.507 27.0965 25.8265 27.281 25.9993 27.5804C26.1721 27.8797 26.1721 28.2487 25.9993 28.5481C25.8265 28.8475 25.507 29.032 25.1612 29.032L25.1611 29.032Z" fill="#7465B4"/>
<path d="M28.4065 6.91577C27.5952 6.10724 27.1279 5.01613 27.1025 3.87089C27.4863 3.86937 27.8542 3.71579 28.125 3.44361C28.3961 3.17165 28.5482 2.80336 28.5482 2.41931V1.45157C28.5482 1.06664 28.3953 0.697239 28.1231 0.425112C27.8509 0.152985 27.4815 0 27.0966 0H17.4193C17.0344 0 16.665 0.152935 16.3928 0.425112C16.1207 0.697288 15.9677 1.06669 15.9677 1.45157V2.41931C15.9677 2.80338 16.1198 3.17165 16.3909 3.44361C16.6618 3.71579 17.0296 3.86937 17.4135 3.87089C17.3882 5.01641 16.921 6.10746 16.1094 6.91643C15.0859 7.93404 14.5122 9.31912 14.5161 10.7625V17.9028C14.5172 18.8007 14.8743 19.6618 15.5094 20.2966C16.1442 20.9317 17.0053 21.2887 17.9032 21.2898H26.6128C27.5108 21.2887 28.3718 20.9317 29.0067 20.2966C29.6417 19.6618 29.9988 18.8007 29.9999 17.9028V10.7625C30.004 9.31895 29.43 7.93388 28.4066 6.91582L28.4065 6.91577ZM16.9353 2.41929V1.45155C16.9353 1.18435 17.1519 0.967684 17.4191 0.967684H27.0965C27.2248 0.967684 27.3479 1.01866 27.4386 1.10939C27.5294 1.20011 27.5803 1.32324 27.5803 1.45155V2.41929C27.5803 2.5476 27.5294 2.67073 27.4386 2.76145C27.3479 2.85217 27.2248 2.90315 27.0965 2.90315H17.4191C17.1519 2.90315 16.9353 2.68649 16.9353 2.41929ZM29.0319 17.903C29.0311 18.5444 28.776 19.1594 28.3226 19.613C27.8689 20.0664 27.254 20.3215 26.6126 20.3224H17.903C17.2616 20.3215 16.6467 20.0664 16.193 19.613C15.7396 19.1594 15.4846 18.5444 15.4837 17.903V10.7628C15.4804 9.57604 15.952 8.43721 16.7936 7.60037C17.787 6.61063 18.3562 5.27327 18.3811 3.87111H26.1346C26.1594 5.27322 26.7286 6.61057 27.722 7.60037C28.5636 8.43721 29.0352 9.57604 29.0319 10.7628V17.903Z" fill="#7465B4"/>
<path d="M26.6129 8.70972H17.9033C17.5184 8.70972 17.149 8.86265 16.8768 9.13483C16.6047 9.40701 16.4517 9.77641 16.4517 10.1613V17.9032C16.4517 18.2881 16.6047 18.6575 16.8768 18.9296C17.149 19.2018 17.5184 19.3547 17.9033 19.3547H26.6129C26.9978 19.3547 27.3672 19.2018 27.6394 18.9296C27.9115 18.6574 28.0645 18.288 28.0645 17.9032V10.1613C28.0645 9.77636 27.9115 9.40696 27.6394 9.13483C27.3672 8.8627 26.9978 8.70972 26.6129 8.70972ZM27.0968 17.9032C27.0968 18.0315 27.0458 18.1546 26.9551 18.2454C26.8643 18.3361 26.7412 18.3871 26.6129 18.3871H17.9033C17.6361 18.3871 17.4194 18.1704 17.4194 17.9032V10.1613C17.4194 9.89411 17.6361 9.67745 17.9033 9.67745H26.6129C26.7412 9.67745 26.8643 9.72843 26.9551 9.81915C27.0458 9.90988 27.0968 10.033 27.0968 10.1613V17.9032Z" fill="#7465B4"/>
<path d="M8.70978 15.4835C8.70978 16.3478 9.17096 17.1466 9.91945 17.5786C10.6679 18.0109 11.5903 18.0109 12.3388 17.5786C13.0873 17.1466 13.5484 16.3478 13.5484 15.4835V12.5803C13.5484 11.716 13.0873 10.9172 12.3388 10.4852C11.5903 10.053 10.6679 10.053 9.91945 10.4852C9.17097 10.9172 8.70978 11.716 8.70978 12.5803V15.4835ZM11.1291 16.9351C10.7442 16.9351 10.3748 16.7822 10.1027 16.51C9.83052 16.2378 9.67754 15.8684 9.67754 15.4835V14.5158H12.5807V15.4835C12.5807 15.8685 12.4278 16.2379 12.1556 16.51C11.8835 16.7821 11.5141 16.9351 11.1292 16.9351H11.1291ZM11.1291 11.1287C11.514 11.1287 11.8834 11.2816 12.1556 11.5538C12.4277 11.826 12.5807 12.1954 12.5807 12.5803V13.548H9.67748V12.5803C9.67748 12.1953 9.83042 11.8259 10.1026 11.5538C10.3748 11.2817 10.7442 11.1287 11.1291 11.1287H11.1291Z" fill="#7465B4"/>
<path d="M25.161 12.5809H23.7094V11.1293C23.7094 11.0009 23.6584 10.8778 23.5677 10.7871C23.477 10.6964 23.3538 10.6454 23.2255 10.6454H21.2901C21.0229 10.6454 20.8062 10.862 20.8062 11.1293V12.5809H19.3546C19.0874 12.5809 18.8707 12.7975 18.8707 13.0647V15.0002C18.8707 15.1285 18.9217 15.2516 19.0124 15.3424C19.1032 15.4331 19.2263 15.4841 19.3546 15.4841H20.8062V16.9357C20.8062 17.064 20.8572 17.1871 20.9479 17.2778C21.0386 17.3685 21.1618 17.4195 21.2901 17.4195H23.2255C23.3538 17.4195 23.477 17.3685 23.5677 17.2778C23.6584 17.1871 23.7094 17.064 23.7094 16.9357V15.4841H25.161C25.2893 15.4841 25.4124 15.4331 25.5032 15.3424C25.5939 15.2516 25.6449 15.1285 25.6449 15.0002V13.0647C25.6449 12.9364 25.5939 12.8133 25.5032 12.7226C25.4124 12.6318 25.2893 12.5809 25.161 12.5809ZM24.6771 14.5163H23.2255C22.9583 14.5163 22.7417 14.733 22.7417 15.0002V16.4518H21.7739V15.0002C21.7739 14.8719 21.723 14.7487 21.6322 14.658C21.5415 14.5673 21.4184 14.5163 21.2901 14.5163H19.8385V13.5486H21.2901C21.4184 13.5486 21.5415 13.4976 21.6322 13.4069C21.7229 13.3162 21.7739 13.193 21.7739 13.0647V11.6131H22.7417V13.0647C22.7417 13.193 22.7926 13.3162 22.8834 13.4069C22.9741 13.4976 23.0972 13.5486 23.2255 13.5486H24.6771V14.5163Z" fill="#7465B4"/>
<path d="M1.54845 13.4809C0.97301 13.8704 0.592608 14.4886 0.504461 15.1779C0.416314 15.8672 0.628884 16.5611 1.08814 17.0829C1.54717 17.6046 2.20839 17.9038 2.90328 17.904H5.80648C6.50137 17.9038 7.16258 17.6046 7.62162 17.0829C8.08086 16.561 8.29339 15.8672 8.2053 15.1779C8.11721 14.4886 7.73677 13.8704 7.16131 13.4809C8.07718 12.7091 8.63476 11.5938 8.70277 10.398C8.7706 9.20214 8.3429 8.0309 7.52031 7.16038C6.69774 6.28964 5.55266 5.79626 4.35488 5.79626C3.1571 5.79626 2.01202 6.28964 1.18945 7.16038C0.366877 8.0309 -0.0608067 9.20214 0.00699003 10.398C0.0750356 11.5938 0.632533 12.7091 1.54845 13.4809ZM1.45168 15.4846C1.45168 15.0997 1.60461 14.7303 1.87679 14.4581C2.14897 14.186 2.51837 14.033 2.90325 14.033H3.87099V16.9362H2.90325C2.51832 16.9362 2.14892 16.7833 1.87679 16.5111C1.60466 16.239 1.45168 15.8695 1.45168 15.4847V15.4846ZM5.80648 16.9362H4.83875V14.033H5.80648C6.32513 14.033 6.80424 14.3097 7.06365 14.7588C7.32287 15.2079 7.32287 15.7613 7.06365 16.2104C6.80422 16.6595 6.32513 16.9362 5.80648 16.9362ZM6.04842 13.0895C5.96806 13.0817 5.89029 13.0653 5.80648 13.0653H2.90328C2.82098 13.0653 2.74322 13.0817 2.66135 13.0895C1.76296 12.5726 1.15185 11.6718 1.00365 10.6459H7.7059C7.55771 11.6718 6.94664 12.5726 6.0482 13.0895H6.04842ZM4.35488 6.77489C5.16861 6.77576 5.95491 7.06975 6.56989 7.60289C7.18465 8.136 7.58711 8.87261 7.7033 9.6781H1.00658C1.12279 8.87261 1.52522 8.13597 2.13999 7.60289C2.75497 7.06977 3.54127 6.77578 4.35499 6.77489H4.35488Z" fill="#7465B4"/>
</svg>
