<svg width="30" height="30" viewBox="0 0 30 30" fill="none" xmlns="http://www.w3.org/2000/svg">
<path d="M15.6665 3.43329V0.66661C15.6665 0.29993 15.3698 0 14.9999 0C14.6332 0 14.3333 0.299948 14.3333 0.66661V3.43329C14.5468 3.37004 14.77 3.3333 14.9999 3.3333C15.2334 3.3333 15.4566 3.37004 15.6665 3.43329Z" fill="#7465B4"/>
<path d="M29.3333 28.6667H28L27.9998 9.99999C27.9998 9.63331 27.7031 9.33338 27.3332 9.33338C26.9665 9.33338 26.6666 9.63333 26.6666 9.99999V28.6667H18.9999V23.9999H17.6667V28.6665H15.6666V17.3331H14.3333V28.6665H12.3332V23.9999H11V28.6665L3.33329 28.6667V9.99998C3.33329 9.6333 3.0366 9.33337 2.66668 9.33337C2.3 9.33337 2.00007 9.63332 2.00007 9.99998V28.6667H0.66661C0.29993 28.6667 0 28.9667 0 29.3333C0 29.7033 0.299947 29.9999 0.66661 29.9999H29.3334C29.7033 29.9999 30 29.7033 30 29.3333C30 28.9667 29.7033 28.6667 29.3334 28.6667L29.3333 28.6667Z" fill="#7465B4"/>
<path d="M15.9999 5.66669C15.9999 5.11679 15.5532 4.66663 14.9998 4.66663C14.4499 4.66663 13.9998 5.11654 13.9998 5.66669V12.6667H15.9999V5.66669Z" fill="#7465B4"/>
<path d="M8.99986 16.0001H20.9999C21.3666 16.0001 21.6665 15.7034 21.6665 15.3335V14.0002L8.33313 14V15.3332C8.33313 15.7034 8.63308 16.0001 8.99974 16.0001L8.99986 16.0001Z" fill="#7465B4"/>
<path d="M12.3332 21.3334C12.3332 20.9667 12.0365 20.6667 11.6666 20.6667H4.66656V22.6669H12.3333L12.3332 21.3334Z" fill="#7465B4"/>
<path d="M17.6665 21.3334V22.6666H25.3332V20.6665L18.3332 20.6667C17.9665 20.6667 17.6666 20.9667 17.6666 21.3333L17.6665 21.3334Z" fill="#7465B4"/>
</svg>
