<svg width="30" height="28" viewBox="0 0 30 28" fill="none" xmlns="http://www.w3.org/2000/svg">
<path d="M25.9724 4.02754C24.266 2.32086 22.1401 1.09319 19.8088 0.468624C17.4775 -0.156208 15.0227 -0.156208 12.6916 0.468624C10.3603 1.0932 8.23469 2.32086 6.52794 4.02754C6.20261 4.35287 6.20261 4.88048 6.52794 5.20583C6.85327 5.53118 7.38089 5.53117 7.70624 5.20583C9.39609 3.51598 11.549 2.36505 13.8931 1.8988C16.237 1.43255 18.6664 1.67194 20.8741 2.58629C23.0821 3.50092 24.9691 5.04954 26.2971 7.03685C27.6247 9.0239 28.3335 11.36 28.3335 13.75C28.3335 16.1401 27.6248 18.4761 26.2971 20.4632C24.9691 22.4503 23.0821 23.9992 20.8741 24.9138C18.6661 25.8281 16.2366 26.0675 13.8931 25.6013C11.549 25.135 9.39602 23.9841 7.70624 22.2942C7.3809 21.9689 6.85329 21.9689 6.52794 22.2942C6.20259 22.6196 6.20261 23.1472 6.52794 23.4725C9.10656 26.0512 12.6039 27.4998 16.2504 27.4998C19.897 27.4998 23.3944 26.0512 25.9728 23.4725C28.5514 20.8939 30.0001 17.3969 30.0001 13.7501C30.0001 10.1033 28.5514 6.60609 25.9728 4.02767L25.9724 4.02754Z" fill="#7465B4"/>
<path d="M16.2499 3.79907C15.7898 3.79907 15.4166 4.17197 15.4166 4.63238V13.7498C15.4166 13.9708 15.5046 14.1828 15.6609 14.3391L20.2199 18.8981L20.2196 18.8978C20.5452 19.2232 21.0726 19.2232 21.3982 18.8978C21.7235 18.5725 21.7235 18.0449 21.3982 17.7195L17.0832 13.4048V4.63245C17.0832 4.17208 16.7103 3.79914 16.2499 3.79914L16.2499 3.79907Z" fill="#7465B4"/>
<path d="M10.8331 13.75C10.8331 13.529 10.7454 13.317 10.5891 13.1607C10.4329 13.0045 10.2208 12.9167 9.99986 12.9167H0.833305C0.372935 12.9167 0 13.2899 0 13.7501C0 14.2102 0.372902 14.5834 0.833305 14.5834H9.99986C10.2208 14.5834 10.4329 14.4956 10.5891 14.3394C10.7454 14.1831 10.8331 13.9711 10.8331 13.7501V13.75Z" fill="#7465B4"/>
<path d="M4.16712 9.58311H10.0003C10.4604 9.58311 10.8336 9.20996 10.8336 8.74981C10.8336 8.28944 10.4605 7.9165 10.0003 7.9165H4.16712C3.70675 7.9165 3.33362 8.28941 3.33362 8.74981C3.33362 9.20992 3.70678 9.58311 4.16712 9.58311Z" fill="#7465B4"/>
<path d="M10.8331 18.7497C10.8331 18.5287 10.7454 18.3167 10.5891 18.1604C10.4328 18.0041 10.2208 17.9164 9.99983 17.9164H4.16663C3.70626 17.9164 3.33313 18.2895 3.33313 18.7497C3.33313 19.2101 3.70629 19.583 4.16663 19.583H9.99983C10.2208 19.583 10.4328 19.4953 10.5891 19.339C10.7454 19.1827 10.8331 18.9707 10.8331 18.7497V18.7497Z" fill="#7465B4"/>
</svg>
